#!OML:ASF H:\MichaelJackson\Top Level 1\Subject 1\Session 1\male.ASF
:FULLY-SPECIFIED
:DEGREES
344
root 7.23631 15.7585 8.01597 -19.9054 18.3564 3.42712
lowerback 21.6314 -0.85768 -7.14099
upperback 7.74664 -2.49835 -0.201166
thorax -3.28556 -1.28954 4.43377
lowerneck -11.8738 -1.07851 6.43593
upperneck 10.4412 -2.21175 -2.72715
head 4.98054 -1.01041 -2.06235
rclavicle -2.84386e-014 1.09332e-015
rhumerus -43.0348 3.05747 -87.3337
rradius 97.7634
rwrist 20.239
rhand -31.6618 -36.1957
rfingers 7.12502
rthumb -4.9222 -66.1186
lclavicle -2.84386e-014 1.09332e-015
lhumerus -54.8868 -7.27329 95.8362
lradius 67.0456
lwrist 26.0676
lhand -18.2614 16.5045
lfingers 7.12502
lthumb 8.01802 46.3324
rfemur -93.0707 -2.25872 37.1581
rtibia 60.631
rfoot 2.7033 20.0759
rtoes 40.22
lfemur -10.6673 7.59962 -28.3794
ltibia 51.6349
lfoot -21.576 15.0697
ltoes 36.7765
345
root 7.23943 15.7587 8.17046 -19.9377 20.7031 2.86517
lowerback 21.0907 -0.73627 -6.69359
upperback 7.54162 -2.19745 -0.00393148
thorax -3.28575 -1.12858 4.30909
lowerneck -12.2193 -0.998183 6.57855
upperneck 11.0204 -2.16943 -2.59788
head 5.22124 -0.96551 -2.05285
rclavicle -2.52457e-014 -1.28216e-014
rhumerus -42.8373 3.29183 -89.8293
rradius 96.9181
rwrist 21.8107
rhand -31.8679 -36.0724
rfingers 7.12502
rthumb -5.12119 -65.9905
lclavicle -2.52457e-014 -1.28216e-014
lhumerus -54.7595 -6.88755 96.25
lradius 68.2831
lwrist 25.743
lhand -19.119 16.6121
lfingers 7.12502
lthumb 7.19027 46.4699
rfemur -93.9299 -0.989068 36.4377
rtibia 64.7439
rfoot 3.47698 22.9988
rtoes 33.8223
lfemur -10.352 6.46387 -28.2237
ltibia 52.019
lfoot -21.7863 14.3589
ltoes 35.5256
346
root 7.24006 15.7599 8.32356 -19.8571 23.2341 2.36894
lowerback 20.4332 -0.516326 -6.39539
upperback 7.26907 -1.79743 0.185953
thorax -3.29915 -0.918913 4.23895
lowerneck -12.502 -0.890357 6.75856
upperneck 11.4027 -2.09591 -2.45892
head 5.39218 -0.905048 -2.04035
rclavicle 2.68546e-014 -1.68967e-014
rhumerus -42.5119 3.79414 -92.3676
rradius 96.2362
rwrist 22.2349
rhand -32.2391 -35.3993
rfingers 7.12502
rthumb -5.47962 -65.3085
lclavicle 2.68546e-014 -1.68967e-014
lhumerus -54.8724 -6.80546 96.8443
lradius 69.852
lwrist 25.9068
lhand -19.9669 16.4588
lfingers 7.12502
lthumb 6.37181 46.3429
rfemur -94.6604 0.152971 35.5639
rtibia 68.6714
rfoot 4.2992 25.5996
rtoes 25.0781
lfemur -10.1715 5.31559 -28.1648
ltibia 52.3793
lfoot -21.9543 13.6214
ltoes 34.0616
347
root 7.23798 15.7634 8.47372 -19.676 25.9388 1.91377
lowerback 19.6939 -0.201941 -6.20815
upperback 6.93284 -1.2967 0.366766
thorax -3.34193 -0.658811 4.20299
lowerneck -12.7061 -0.741783 6.98064
upperneck 11.5698 -1.96654 -2.34925
head 5.48493 -0.820732 -2.03547
rclavicle -1.82261e-014 4.17448e-015
rhumerus -42.0621 4.55304 -94.8577
rradius 95.6593
rwrist 22.1193
rhand -32.8493 -34.5766
rfingers 7.12502
rthumb -6.06874 -64.4697
lclavicle -1.82261e-014 4.17448e-015
lhumerus -55.1836 -7.1181 97.622
lradius 71.6908
lwrist 26.5704
lhand -20.5459 16.1239
lfingers 7.12502
lthumb 5.81275 46.0242
rfemur -95.1984 1.17069 34.561
rtibia 72.3491
rfoot 5.10392 27.7007
rtoes 14.4834
lfemur -10.1207 4.16304 -28.1634
ltibia 52.7034
lfoot -22.0729 12.8323
ltoes 32.411
348
root 7.23337 15.7687 8.62103 -19.4046 28.8407 1.49589
lowerback 18.9081 0.192131 -6.11598
upperback 6.53584 -0.712186 0.5269
thorax -3.42898 -0.355853 4.1863
lowerneck -12.8348 -0.540619 7.25143
upperneck 11.5471 -1.76095 -2.30264
head 5.50833 -0.705253 -2.04883
rclavicle 1.13866e-014 3.62782e-015
rhumerus -41.515 5.55145 -97.1875
rradius 95.1468
rwrist 22.1076
rhand -33.6515 -33.7174
rfingers 7.12502
rthumb -6.84318 -63.5868
lclavicle 1.13866e-014 3.62782e-015
lhumerus -55.6268 -7.84725 98.5587
lradius 73.7021
lwrist 27.6491
lhand -20.5678 15.7297
lfingers 7.12502
lthumb 5.79168 45.6305
rfemur -95.51 2.03169 33.4299
rtibia 75.7287
rfoot 5.6532 29.1958
rtoes 2.95602
lfemur -10.1943 3.0031 -28.2113
ltibia 52.9971
lfoot -22.1387 11.9529
ltoes 30.5965
349
root 7.22622 15.7774 8.76647 -19.0977 31.9616 1.05419
lowerback 18.1011 0.645071 -6.0688
upperback 6.09669 -0.0607546 0.669981
thorax -3.5536 -0.018562 4.16938
lowerneck -12.9204 -0.276471 7.55389
upperneck 11.388 -1.46327 -2.32488
head 5.48581 -0.55163 -2.07945
rclavicle -1.2657e-016 2.1916e-014
rhumerus -40.8898 6.74736 -99.2514
rradius 94.6909
rwrist 22.5402
rhand -34.4771 -32.8317
rfingers 7.12502
rthumb -7.64012 -62.6737
lclavicle -1.2657e-016 2.1916e-014
lhumerus -56.1161 -8.96568 99.6137
lradius 75.7793
lwrist 28.9955
lhand -19.82 15.4609
lfingers 7.12502
lthumb 6.5136 45.3407
rfemur -95.5439 2.68589 32.2263
rtibia 78.7793
rfoot 5.90455 29.991
rtoes -8.08181
lfemur -10.3694 1.85857 -28.2378
ltibia 53.2682
lfoot -22.1354 10.9351
ltoes 28.5669
350
root 7.21738 15.7894 8.91014 -18.8182 35.3178 0.522993
lowerback 17.3088 1.13519 -5.99146
upperback 5.62674 0.640659 0.785579
thorax -3.72115 0.344948 4.10249
lowerneck -12.9951 0.048058 7.89039
upperneck 11.1462 -1.0803 -2.41761
head 5.44019 -0.362328 -2.12988
rclavicle 1.54889e-014 2.17669e-014
rhumerus -40.2052 8.10143 -100.966
rradius 94.2961
rwrist 23.4886
rhand -35.1821 -31.7295
rfingers 7.12502
rthumb -8.3205 -61.5457
lclavicle 1.54889e-014 2.17669e-014
lhumerus -56.575 -10.4158 100.724
lradius 77.8323
lwrist 30.4277
lhand -18.151 15.4621
lfingers 7.12502
lthumb 8.12456 45.2859
rfemur -95.2639 3.07446 31.0326
rtibia 81.4685
rfoot 5.80574 30.0765
rtoes -17.2457
lfemur -10.6417 0.737114 -28.1906
ltibia 53.5313
lfoot -22.0726 9.71089
ltoes 26.4674
351
root 7.20718 15.8045 9.05299 -18.5865 38.9799 -0.128779
lowerback 16.5141 1.63292 -5.89269
upperback 5.13989 1.35266 0.865235
thorax -3.90115 0.713421 3.98963
lowerneck -13.066 0.430819 8.26277
upperneck 10.8432 -0.61677 -2.57977
head 5.38028 -0.139074 -2.20086
rclavicle 1.20998e-013 -2.64384e-014
rhumerus -39.4818 9.54774 -102.297
rradius 94.0245
rwrist 24.6993
rhand -35.6257 -30.0513
rfingers 7.12502
rthumb -8.74859 -59.85
lclavicle 1.20998e-013 -2.64384e-014
lhumerus -56.926 -12.1076 101.839
lradius 79.7985
lwrist 31.7623
lhand -15.4984 15.9705
lfingers 7.12502
lthumb 10.684 45.6789
rfemur -94.6937 3.12517 29.8261
rtibia 83.7712
rfoot 5.48592 29.4998
rtoes -24.0895
lfemur -11.0317 -0.374221 -28.0776
ltibia 53.7907
lfoot -21.9719 8.23624
ltoes 24.4902
352
root 7.19634 15.8237 9.19577 -18.4999 42.9216 -0.991455
lowerback 15.7362 2.12966 -5.72763
upperback 4.65017 2.07024 0.916285
thorax -4.08526 1.08332 3.8143
lowerneck -13.1543 0.85648 8.63044
upperneck 10.5143 -0.0937437 -2.77193
head 5.32102 0.109827 -2.27547
rclavicle -4.57764e-014 -1.03368e-014
rhumerus -38.752 11.0619 -103.235
rradius 93.9298
rwrist 25.7258
rhand -35.6927 -27.6248
rfingers 7.12502
rthumb -8.81326 -57.4207
lclavicle -4.57764e-014 -1.03368e-014
lhumerus -57.1246 -13.9442 102.929
lradius 81.6435
lwrist 32.859
lhand -11.9332 17.0192
lfingers 7.12502
lthumb 14.1214 46.5194
rfemur -93.7921 2.83702 28.6654
rtibia 85.6464
rfoot 5.1361 28.4031
rtoes -28.7671
lfemur -11.5215 -1.40869 -27.8465
ltibia 54.0439
lfoot -21.8541 6.51453
ltoes 22.8215
353
root 7.1858 15.8494 9.33958 -18.684 47.1507 -2.1991
lowerback 14.9397 2.6071 -5.46705
upperback 4.17621 2.7758 0.950456
thorax -4.22878 1.44375 3.57765
lowerneck -13.2232 1.31238 8.98711
upperneck 10.1355 0.47426 -2.9808
head 5.24847 0.377755 -2.34934
rclavicle -1.05617e-013 2.74323e-014
rhumerus -38.0591 12.6098 -103.826
rradius 94.0397
rwrist 26.207
rhand -35.4709 -24.6575
rfingers 7.12502
rthumb -8.59924 -54.4624
lclavicle -1.05617e-013 2.74323e-014
lhumerus -57.1528 -15.8559 103.989
lradius 83.3656
lwrist 33.662
lhand -7.70426 18.5607
lfingers 7.12502
lthumb 18.1934 47.7298
rfemur -92.5505 2.20433 27.5754
rtibia 87.0647
rfoot 4.84254 27.0054
rtoes -31.7982
lfemur -12.1052 -2.3409 -27.458
ltibia 54.2782
lfoot -21.7097 4.57071
ltoes 21.66
354
root 7.17586 15.8823 9.48526 -19.2887 51.6541 -3.86475
lowerback 14.1391 3.05757 -5.14407
upperback 3.72781 3.45208 0.971274
thorax -4.32557 1.78589 3.30689
lowerneck -13.2711 1.78542 9.3172
upperneck 9.71966 1.06971 -3.1834
head 5.16563 0.657708 -2.41436
rclavicle 1.54058e-015 -1.82882e-014
rhumerus -37.4483 14.1616 -104.132
rradius 94.3379
rwrist 25.9641
rhand -34.9996 -21.545
rfingers 7.12502
rthumb -8.1444 -51.368
lclavicle 1.54058e-015 -1.82882e-014
lhumerus -57.0244 -17.777 105.036
lradius 84.9736
lwrist 34.1441
lhand -3.25981 20.424
lfingers 7.12502
lthumb 22.4646 49.1375
rfemur -90.9569 1.26282 26.5174
rtibia 88.0032
rfoot 4.7597 25.5319
rtoes -33.541
lfemur -12.7483 -3.12878 -26.9351
ltibia 54.4719
lfoot -21.5189 2.50294
ltoes 21.0433
